<?xml version="1.0" encoding="UTF-8" standalone="no"?>
<svg width="512px" height="512px" viewBox="0 0 512 512" version="1.1" xmlns="http://www.w3.org/2000/svg" xmlns:xlink="http://www.w3.org/1999/xlink">
    <!-- Generator: Sketch 41.2 (35397) - http://www.bohemiancoding.com/sketch -->
    <title>Pinned Tab</title>
    <desc>Created with Sketch.</desc>
    <defs></defs>
    <g id="Main-Page" stroke="none" stroke-width="1" fill="none" fill-rule="evenodd">
        <g id="Pinned-Tab" fill="#000000">
            <g id="Cloud" transform="translate(0.000000, 97.000000)">
                <path d="M432.128,318.769231 C476.240088,318.769231 512,283.089769 512,239.076923 C512,195.064077 476.240088,159.384615 432.128,159.384615 C432.128,71.358923 360.608175,0 272.384,0 C197.840158,0 135.221852,50.9444202 117.594627,119.842105 C115.971268,119.641683 114.317716,119.538462 112.64,119.538462 C90.5839562,119.538462 72.704,137.378192 72.704,159.384615 C72.704,159.490196 72.7044116,159.59568 72.7052332,159.701067 C31.9508913,163.317034 0,197.474108 0,239.076923 C0,283.089769 35.7599125,318.769231 79.872,318.769231 L432.128,318.769231 Z" id="Gold"></path>
            </g>
        </g>
    </g>
</svg>